<svg width="118.777130" height="27.121704" viewBox="0 0 118.777 27.1217" fill="none" xmlns="http://www.w3.org/2000/svg" xmlns:xlink="http://www.w3.org/1999/xlink">
	<desc>
			Created with Pixso.
	</desc>
	<defs/>
	<path id="Shape" d="M34.3994 7.64166L37.3994 7.64166L37.3994 19.7717L34.3994 19.7717L34.3994 7.64166ZM38.5894 15.1917C38.5894 12.1917 40.4294 10.4017 43.2694 10.4017C46.1094 10.4017 47.9494 12.1917 47.9494 15.1917C47.9494 18.1917 46.1494 19.9917 43.2694 19.9917C40.3894 19.9917 38.5894 18.2417 38.5894 15.1917ZM44.9394 15.1917L44.9394 15.2017C44.9394 16.8717 44.2994 17.7917 43.2694 17.7917C42.2394 17.7917 41.6094 16.8117 41.6094 15.1917C41.6094 13.5717 42.2494 12.5717 43.2694 12.5717C44.2894 12.5717 44.9394 13.5417 44.9394 15.1917ZM49.0794 20.3617L51.9594 20.3617C52.2409 20.987 52.8998 21.3531 53.5794 21.2617C54.7194 21.2617 55.3194 20.6417 55.3194 19.7417L55.3194 18.0617L55.2594 18.0617C54.7704 19.1152 53.6891 19.7647 52.5294 19.7017C50.3394 19.7017 48.8894 18.0317 48.8894 15.1617C48.8894 12.2917 50.2694 10.4817 52.5694 10.4817C53.7666 10.4348 54.8669 11.1365 55.3294 12.2417L55.3294 10.5717L58.3294 10.5717L58.3294 19.6717C58.3294 21.8617 56.3994 23.2217 53.5494 23.2217C50.8994 23.2217 49.2494 22.0317 49.0794 20.3717L49.0794 20.3617ZM55.3294 15.1817L55.3294 15.1917C55.3294 16.6717 54.6694 17.4817 53.5994 17.4817C52.5294 17.4817 51.8894 16.6517 51.8894 15.1817C51.8894 13.7117 52.5394 12.8017 53.5994 12.8017C54.6594 12.8017 55.3294 13.7217 55.3294 15.1817ZM59.4594 15.1817C59.4594 12.1817 61.2994 10.3917 64.1394 10.3917C66.9794 10.3917 68.8294 12.1817 68.8294 15.1817C68.8294 18.1817 67.0294 19.9817 64.1394 19.9817C61.2494 19.9817 59.4594 18.2417 59.4594 15.1917L59.4594 15.1817ZM65.8094 15.1817L65.8094 15.2017C65.8094 16.8717 65.1994 17.8017 64.1794 17.8017C63.1594 17.8017 62.5294 16.8317 62.5294 15.2017C62.5294 13.5717 63.1194 12.5617 64.1394 12.5617C65.1594 12.5617 65.8094 13.5317 65.8094 15.1817ZM69.9694 8.39166C69.9691 8.37836 69.9689 8.36505 69.9689 8.35175C69.9689 7.74792 70.3247 7.19885 70.879 6.95319C71.4456 6.70215 72.1075 6.81757 72.5557 7.24561C72.8638 7.53992 73.029 7.94202 73.029 8.35229C73.029 8.5387 72.9949 8.72668 72.9247 8.90704C72.6999 9.4845 72.149 9.86932 71.5294 9.88171C71.1234 9.90961 70.7242 9.76678 70.4281 9.48767C70.1352 9.21173 69.9694 8.82721 69.9694 8.42517L69.9694 8.41168L69.9694 8.39166ZM69.9694 10.5917L72.9694 10.5917L72.9694 19.7717L69.9694 19.7717L69.9694 10.5917ZM83.8594 15.1817C83.8594 18.1817 82.5294 19.8917 80.2494 19.8917C79.0518 19.9686 77.9337 19.2897 77.4494 18.1917L77.3894 18.1917L77.3894 22.7117L74.3894 22.7117L74.3894 10.5717L77.3894 10.5717L77.3894 12.2117L77.4494 12.2117C77.9112 11.0954 79.0226 10.3878 80.2294 10.4417C82.5294 10.4817 83.8994 12.2017 83.8994 15.2017L83.8594 15.1817ZM80.8594 15.1817L80.8594 15.2017C80.8594 16.6517 80.1894 17.5617 79.1394 17.5617C78.0894 17.5617 77.3994 16.6317 77.4094 15.1817C77.4194 13.7317 78.0894 12.7917 79.1394 12.7917C80.1894 12.7917 80.8594 13.7217 80.8594 15.1817ZM89.0094 10.3817C91.4994 10.3817 93.0094 11.5617 93.0794 13.4517L90.3494 13.4517C90.3494 12.8017 89.8094 12.3917 88.9794 12.3917C88.1494 12.3917 87.7794 12.7117 87.7794 13.1817C87.7794 13.6517 88.1094 13.8017 88.7794 13.9417L90.6994 14.3317C92.5294 14.7217 93.3094 15.4617 93.3094 16.8517C93.3094 18.7517 91.5794 19.9717 89.0294 19.9717C86.4794 19.9717 84.8094 18.7517 84.6794 16.8817L87.5694 16.8817C87.6594 17.5617 88.1994 17.9617 89.0794 17.9617C89.9594 17.9617 90.3594 17.6717 90.3594 17.1917C90.3594 16.7117 90.0794 16.6117 89.3594 16.4617L87.6294 16.0917C85.8394 15.7217 84.8994 14.7717 84.8994 13.3717C84.9194 11.5717 86.5294 10.4017 89.0094 10.4017L89.0094 10.3817ZM103.319 19.7517L100.429 19.7517L100.429 18.0417L100.369 18.0417C100.042 19.2246 98.9349 20.0197 97.7094 19.9517C96.7872 20.0041 95.8876 19.6542 95.2431 18.9925C94.6607 18.3945 94.3384 17.5948 94.3384 16.767C94.3384 16.6788 94.342 16.5903 94.3494 16.5017L94.3494 10.5717L97.3494 10.5717L97.3494 15.8117C97.3494 16.9017 97.9094 17.4817 98.8394 17.4817C99.2806 17.4826 99.7007 17.293 99.9919 16.9615C100.239 16.6807 100.373 16.3211 100.373 15.9517C100.373 15.8853 100.368 15.8184 100.359 15.7517L100.359 10.5717L103.359 10.5717L103.319 19.7517ZM104.769 10.5717L107.669 10.5717L107.669 12.3417L107.729 12.3417C108.057 11.1766 109.129 10.3793 110.339 10.4017C111.581 10.3023 112.69 11.1725 112.889 12.4017L112.949 12.4017C113.323 11.1694 114.483 10.3464 115.769 10.4017C116.595 10.374 117.393 10.698 117.965 11.2931C118.488 11.8371 118.777 12.5607 118.777 13.3099C118.777 13.3803 118.775 13.4509 118.769 13.5217L118.769 19.7717L115.769 19.7717L115.769 14.3217C115.769 13.3217 115.319 12.8617 114.479 12.8617C114.1 12.8585 113.739 13.0196 113.487 13.3034C113.274 13.5444 113.158 13.8537 113.158 14.1716C113.158 14.2281 113.162 14.285 113.169 14.3417L113.169 19.7717L110.319 19.7717L110.319 14.2817C110.319 13.3617 109.869 12.8617 109.049 12.8617C108.666 12.8618 108.301 13.026 108.047 13.3127C107.829 13.5591 107.71 13.8759 107.71 14.2017C107.71 14.2548 107.713 14.3083 107.719 14.3617L107.719 19.7717L104.719 19.7717L104.769 10.5717Z" clip-rule="evenodd" fill="#696871" fill-opacity="1.000000" fill-rule="evenodd"/>
	<path id="Shape" d="M26.0094 8.19165C25.5005 7.02802 24.8269 5.9436 24.0094 4.97168C20.7111 0.933411 15.3859 -0.85022 10.3207 0.38678C5.25549 1.62372 1.35181 5.66113 0.286133 10.7651C-0.779602 15.8691 1.18237 21.1312 5.32941 24.2917C6.30438 25.0496 7.38171 25.6656 8.52936 26.1217C10.1384 26.7811 11.8605 27.1207 13.5994 27.1217C21.0728 27.1052 27.1239 21.045 27.1294 13.5717C27.132 11.7202 26.7507 9.88831 26.0094 8.19165ZM18.1094 3.76166C16.6937 3.10278 15.1509 2.76154 13.5894 2.76166L13.5994 2.7417C9.89642 2.73889 6.4502 4.63342 4.46838 7.76141C2.48651 10.8894 2.24536 14.8146 3.82941 18.1617C4.28107 17.6871 4.55945 17.0741 4.61938 16.4217C4.98309 13.9091 6.95679 11.9354 9.46936 11.5717C10.887 11.4431 12.0192 10.3361 12.1794 8.92169C12.5431 6.40912 14.5168 4.43536 17.0294 4.07166C17.4012 4.01501 17.7642 3.91083 18.1094 3.76166ZM5.3194 20.5717C5.43939 20.4617 5.55939 20.3617 5.67938 20.2417C6.56903 19.3792 7.14008 18.2405 7.29938 17.0117C7.36395 16.3209 7.67236 15.6757 8.16937 15.1917C8.64764 14.6938 9.29138 14.388 9.97937 14.3317C12.4919 13.968 14.4657 11.9943 14.8294 9.48169C14.8726 8.75922 15.1827 8.07849 15.6994 7.57166C16.1895 7.0835 16.8393 6.78876 17.5294 6.7417C18.6533 6.58704 19.7015 6.0874 20.5294 5.31165C21.472 6.09375 22.2707 7.03455 22.8894 8.09167C22.8514 8.14301 22.8078 8.19 22.7594 8.23169C22.282 8.73389 21.6392 9.04645 20.9494 9.11169C18.4337 9.46912 16.4568 11.4459 16.0994 13.9617C15.9541 15.381 14.8293 16.5016 13.4094 16.6417C10.8898 17.0026 8.90582 18.9744 8.52936 21.4917C8.47559 21.9804 8.30774 22.4496 8.03937 22.8617C7.01337 22.2525 6.09448 21.4789 5.3194 20.5717ZM10.5894 24.0117C11.5648 24.2914 12.5746 24.4328 13.5894 24.4317L13.5894 24.3817C16.9385 24.3687 20.0928 22.8055 22.1315 20.1484C24.1703 17.4914 24.8637 14.04 24.0094 10.8017C23.2502 11.3384 22.3714 11.6818 21.4494 11.8017C20.0334 11.9462 18.9139 13.0657 18.7694 14.4817C18.4045 16.9974 16.4258 18.972 13.9094 19.3317C12.4934 19.4761 11.3738 20.5957 11.2294 22.0117C11.14 22.7119 10.923 23.3896 10.5894 24.0117Z" clip-rule="evenodd" fill="#696871" fill-opacity="1.000000" fill-rule="evenodd"/>
</svg>
