<svg width="100.190018" height="47.654236" viewBox="0 0 100.19 47.6542" fill="none" xmlns="http://www.w3.org/2000/svg" xmlns:xlink="http://www.w3.org/1999/xlink">
	<desc>
			Created with Pixso.
	</desc>
	<defs/>
	<path d="M0 28.61L3 28.61L3 43.32L0 43.32L0 28.61Z" fill="#696871" fill-opacity="1.000000" fill-rule="nonzero"/>
	<path d="M4.73999 38.28C4.73594 36.1193 6.03442 34.1691 8.02952 33.3394C10.0246 32.5097 12.3231 32.9641 13.8524 34.4905C15.3817 36.017 15.8404 38.3146 15.0145 40.3112C14.1885 42.3079 12.2407 43.61 10.08 43.61C8.66056 43.6262 7.29441 43.0702 6.28972 42.0674C5.28503 41.0646 4.72645 39.6995 4.73999 38.28ZM10.041 36.0204C11.3142 35.9985 12.3671 37.0071 12.4 38.28C12.4338 38.9105 12.2023 39.5263 11.7616 39.9785C11.3208 40.4305 10.7111 40.6777 10.08 40.66C8.80659 40.6596 7.77154 39.6329 7.76085 38.3595C7.75015 37.0862 8.76781 36.0422 10.041 36.0204Z" clip-rule="evenodd" fill="#696871" fill-opacity="1.000000" fill-rule="evenodd"/>
	<path d="M27.48 33.24L27.48 42.82C27.48 46.21 24.83 47.64 22.15 47.64C20.2287 47.7828 18.3884 46.8415 17.38 45.2L19.96 43.71C20.3789 44.5544 21.2706 45.0577 22.21 44.98C22.8223 45.082 23.4473 44.894 23.9016 44.471C24.3559 44.048 24.5881 43.438 24.53 42.82L24.53 41.89C23.8146 42.77 22.7227 43.2565 21.59 43.2C18.7623 43.2 16.47 40.9077 16.47 38.08C16.47 35.2523 18.7623 32.96 21.59 32.96C22.7218 32.9083 23.8116 33.3939 24.53 34.27L24.53 33.27L27.48 33.24ZM23.0951 35.7557C24.0029 36.1651 24.5708 37.085 24.53 38.08C24.5485 38.7238 24.2939 39.3455 23.829 39.7913C23.3642 40.2371 22.7324 40.4655 22.09 40.42C21.0942 40.4191 20.1988 39.8132 19.8277 38.8892C19.4567 37.9651 19.6844 36.9082 20.4031 36.2189C21.1219 35.5297 22.1873 35.3463 23.0951 35.7557Z" clip-rule="evenodd" fill="#696871" fill-opacity="1.000000" fill-rule="evenodd"/>
	<path d="M29.21 38.28C29.206 36.1193 30.5045 34.1691 32.4995 33.3394C34.4946 32.5097 36.7931 32.9641 38.3224 34.4905C39.8517 36.017 40.3104 38.3146 39.4845 40.3112C38.6585 42.3079 36.7108 43.61 34.55 43.61C33.1306 43.6262 31.7644 43.0702 30.7598 42.0674C29.7551 41.0646 29.1965 39.6995 29.21 38.28ZM34.5111 36.0204C35.7843 35.9985 36.8371 37.0071 36.87 38.28L36.85 38.28C36.8835 38.9069 36.6546 39.5195 36.2184 39.9709C35.7821 40.4224 35.1777 40.6721 34.55 40.66C33.2766 40.6596 32.2416 39.6329 32.2309 38.3595C32.2202 37.0862 33.2378 36.0422 34.5111 36.0204Z" clip-rule="evenodd" fill="#696871" fill-opacity="1.000000" fill-rule="evenodd"/>
	<path d="M43.1 28.72C42.0949 28.72 41.28 29.5348 41.28 30.54C41.2855 31.5428 42.0971 32.3545 43.1 32.36C44.1052 32.36 44.92 31.5451 44.92 30.54C44.92 29.5348 44.1052 28.72 43.1 28.72ZM44.59 33.24L41.59 33.24L41.59 43.3199L44.59 43.3199L44.59 33.24Z" clip-rule="evenodd" fill="#696871" fill-opacity="1.000000" fill-rule="evenodd"/>
	<path d="M57.67 38.28C57.7435 39.6257 57.277 40.9453 56.374 41.9458C55.4711 42.9464 54.2062 43.5454 52.86 43.61C51.7272 43.6644 50.6286 43.2139 49.86 42.38L49.86 47.38L46.86 47.38L46.86 33.24L49.86 33.24L49.86 34.19C50.6286 33.356 51.7272 32.9056 52.86 32.96C54.2044 33.0246 55.4676 33.6223 56.3703 34.6206C57.273 35.619 57.7407 36.9359 57.67 38.28ZM52.2505 35.9409C53.5601 35.9298 54.6368 36.9707 54.67 38.28L54.65 38.28C54.6975 38.9423 54.4565 39.5928 53.9889 40.0643C53.5212 40.5358 52.8727 40.7821 52.21 40.74C50.9007 40.7068 49.8598 39.6301 49.8708 38.3205C49.8819 37.0109 50.9409 35.9519 52.2505 35.9409Z" clip-rule="evenodd" fill="#696871" fill-opacity="1.000000" fill-rule="evenodd"/>
	<path d="M67.01 40.3C67.01 42.62 65.01 43.61 62.81 43.61C61.01 43.76 59.29 42.81 58.48 41.21L61.1 39.72C61.31 40.46 62.03 40.96 62.81 40.91C63.54 40.91 63.9 40.68 63.9 40.28C63.9 39.16 58.9 39.75 58.9 36.28C58.9 34.08 60.76 32.97 62.9 32.97C64.5 32.92 66.01 33.74 66.83 35.13L64.21 36.5C63.97 35.97 63.43 35.62 62.85 35.62C62.33 35.62 62.01 35.82 62.01 36.18C62.05 37.34 67.01 36.57 67.01 40.3Z" fill="#696871" fill-opacity="1.000000" fill-rule="nonzero"/>
	<path d="M78.05 33.24L78.05 43.32L75.05 43.32L75.05 42.38C74.34 43.22 73.27 43.68 72.17 43.61C70.17 43.61 68.4 42.16 68.4 39.43L68.4 33.24L71.4 33.24L71.4 38.99C71.34 39.48 71.51 39.98 71.87 40.33C72.22 40.68 72.71 40.86 73.21 40.82C74.31 40.82 75.08 40.18 75.08 38.75L75.08 33.24L78.05 33.24Z" fill="#696871" fill-opacity="1.000000" fill-rule="nonzero"/>
	<path d="M95.39 37.14L95.39 43.32L92.39 43.32L92.39 37.4C92.39 36.4 91.9 35.74 90.94 35.74C89.98 35.74 89.36 36.45 89.36 37.64L89.36 43.32L86.36 43.32L86.36 37.4C86.36 36.4 85.88 35.74 84.91 35.74C83.94 35.74 83.34 36.45 83.34 37.64L83.34 43.32L80.33 43.32L80.33 33.24L83.34 33.24L83.34 34.16C83.97 33.33 84.99 32.88 86.04 32.96C87.09 32.9 88.09 33.41 88.68 34.29C89.36 33.37 90.46 32.87 91.6 32.96C93.88 32.96 95.39 34.62 95.39 37.14Z" fill="#696871" fill-opacity="1.000000" fill-rule="nonzero"/>
	<path d="M97.95 33.18C99.18 33.18 100.19 32.17 100.19 30.94C100.19 29.7 99.18 28.7 97.95 28.7C96.71 28.7 95.71 29.7 95.71 30.94C95.71 32.17 96.71 33.18 97.95 33.18Z" fill="#696871" fill-opacity="1.000000" fill-rule="nonzero"/>
	<path d="M33.95 20.98C39.74 20.98 44.44 16.28 44.44 10.49C44.44 4.69 39.74 0 33.95 0C28.15 0 23.46 4.69 23.46 10.49C23.46 16.28 28.15 20.98 33.95 20.98Z" fill="#696871" fill-opacity="1.000000" fill-rule="nonzero"/>
	<path d="M57.4 20.98C63.19 20.98 67.89 16.28 67.89 10.49C67.89 4.69 63.19 0 57.4 0C51.6 0 46.91 4.69 46.91 10.49C46.91 16.28 51.6 20.98 57.4 20.98Z" fill="#696871" fill-opacity="1.000000" fill-rule="nonzero"/>
	<rect x="0.020020" width="20.969999" height="20.969999" fill="#696871" fill-opacity="1.000000"/>
</svg>
