<svg width="117.677399" height="23.614685" viewBox="0 0 117.677 23.6147" fill="none" xmlns="http://www.w3.org/2000/svg" xmlns:xlink="http://www.w3.org/1999/xlink">
	<desc>
			Created with Pixso.
	</desc>
	<defs/>
	<path d="M37.83 19.2C37.23 19.23 36.64 19.06 36.16 18.72C35.74 18.41 35.51 17.92 35.53 17.41L35.53 8.14C35.52 8.06 35.54 7.98 35.6 7.92C35.66 7.87 35.74 7.84 35.82 7.85L37.5 7.85C37.68 7.85 37.78 7.95 37.78 8.14L37.78 16.69C37.78 17.07 37.95 17.26 38.3 17.26C38.44 17.27 38.59 17.25 38.74 17.21C38.93 17.21 39.05 17.27 39.06 17.45L39.21 18.7C39.22 18.77 39.2 18.85 39.16 18.91C39.11 18.97 39.04 19.01 38.97 19.01C38.6 19.13 38.21 19.2 37.83 19.2Z" fill="#696871" fill-opacity="1.000000" fill-rule="nonzero"/>
	<path d="M47.28 18.1348C45.5387 19.5734 43.0213 19.5734 41.28 18.1348C39.7357 16.5757 39.7357 14.0637 41.28 12.5048C43.0241 11.0739 45.5359 11.0739 47.28 12.5048C48.7861 14.0754 48.7861 16.5541 47.28 18.1248L47.28 18.1348ZM45.72 16.8148C44.9084 17.5499 43.6716 17.5499 42.86 16.8148C42.1269 15.9719 42.1269 14.7177 42.86 13.8748C43.6716 13.1395 44.9084 13.1395 45.72 13.8748C46.4531 14.7177 46.4531 15.9719 45.72 16.8148Z" clip-rule="evenodd" fill="#696871" fill-opacity="1.000000" fill-rule="evenodd"/>
	<path d="M57.66 11.6847C57.85 11.6847 57.94 11.7847 57.94 11.9747L57.94 19.1447C57.9754 20.1247 57.5677 21.0686 56.83 21.7147C56.0214 22.4042 54.9816 22.7615 53.92 22.7147C52.9611 22.7484 52.0151 22.4866 51.21 21.9647C50.5151 21.5084 50.0407 20.7841 49.9 19.9647C49.9 19.7647 49.9 19.6747 50.17 19.6747L51.85 19.6747C51.9957 19.6796 52.1249 19.7697 52.18 19.9047C52.289 20.2084 52.5062 20.4612 52.79 20.6147C53.1359 20.7932 53.5209 20.8825 53.91 20.8747C54.3843 20.9007 54.8492 20.7349 55.2 20.4147C55.5206 20.0796 55.6904 19.6281 55.67 19.1647L55.67 18.5347C55.0685 18.9771 54.3364 19.2059 53.59 19.1847C52.5344 19.2231 51.5088 18.8295 50.75 18.0947C49.2514 16.5443 49.2514 14.0851 50.75 12.5347C51.5124 11.8066 52.5365 11.4171 53.59 11.4547C54.358 11.4344 55.1098 11.6779 55.72 12.1447L55.72 11.9847C55.7107 11.9071 55.7368 11.8294 55.7911 11.7732C55.8454 11.717 55.9221 11.6881 56 11.6947L57.66 11.6847ZM55.15 16.8147C54.8034 17.2047 54.3015 17.4208 53.78 17.4047C53.2528 17.4199 52.7453 17.2045 52.39 16.8147C52.0313 16.4029 51.842 15.8705 51.86 15.3247C51.838 14.7735 52.0317 14.2354 52.4 13.8247C52.7545 13.4338 53.2626 13.2181 53.79 13.2347C54.3067 13.2177 54.8046 13.4299 55.15 13.8147C55.8338 14.6978 55.8338 15.9316 55.15 16.8147Z" clip-rule="evenodd" fill="#696871" fill-opacity="1.000000" fill-rule="evenodd"/>
	<path d="M66.57 18.1348C64.8259 19.5656 62.3141 19.5656 60.57 18.1348C59.0627 16.5607 59.0627 14.0787 60.57 12.5048C62.3155 11.0778 64.8245 11.0778 66.57 12.5048C68.0761 14.0754 68.0761 16.5541 66.57 18.1248L66.57 18.1348ZM63.58 17.3647C63.0458 17.3812 62.5272 17.1831 62.14 16.8148C61.4197 15.9671 61.4197 14.7224 62.14 13.8748C62.5272 13.5063 63.0458 13.3083 63.58 13.3248C64.1108 13.311 64.6252 13.5089 65.01 13.8748C65.7304 14.7224 65.7304 15.9671 65.01 16.8148C64.6252 17.1806 64.1108 17.3785 63.58 17.3647Z" clip-rule="evenodd" fill="#696871" fill-opacity="1.000000" fill-rule="evenodd"/>
	<path d="M69.4 9.98474C69.9468 10.4633 70.7633 10.4633 71.31 9.98474C71.5523 9.7561 71.6895 9.43781 71.6895 9.10474C71.6895 8.77167 71.5523 8.45331 71.31 8.22473C70.7586 7.75891 69.9515 7.75891 69.4 8.22473C69.1578 8.45331 69.0205 8.77167 69.0205 9.10474C69.0205 9.43781 69.1578 9.7561 69.4 9.98474ZM69.85 18.7247C70.3383 19.0651 70.9256 19.2339 71.52 19.2047C71.9109 19.201 72.2988 19.137 72.67 19.0147C72.7451 19.0104 72.8145 18.9738 72.8605 18.9143C72.9066 18.8549 72.9246 18.7784 72.91 18.7047L72.76 17.4547C72.75 17.2747 72.64 17.2147 72.44 17.2147C72.2933 17.2533 72.1417 17.2701 71.99 17.2647Q71.7633 17.2647 71.6373 17.152Q71.48 17.0113 71.48 16.6947L71.48 11.9747C71.48 11.7847 71.39 11.6847 71.2 11.6847L69.52 11.6847C69.4405 11.6749 69.3609 11.7022 69.3042 11.7589C69.2475 11.8156 69.2202 11.8952 69.23 11.9747L69.23 17.4147C69.2124 17.926 69.4435 18.4142 69.85 18.7247Z" clip-rule="evenodd" fill="#696871" fill-opacity="1.000000" fill-rule="evenodd"/>
	<path d="M79.09 11.4448C80.1502 11.4028 81.1821 11.7925 81.95 12.5247C83.4171 14.0993 83.4171 16.5402 81.95 18.1147C81.1857 18.8536 80.1522 19.2475 79.09 19.2047C78.3412 19.2214 77.6073 18.9932 77 18.5547L77 22.1647C77 22.3547 76.9 22.4448 76.71 22.4448L75.03 22.4448C74.9522 22.4593 74.8722 22.4345 74.8162 22.3785C74.7603 22.3226 74.7355 22.2426 74.75 22.1647L74.75 13.9647C74.7739 13.8021 74.7195 13.6378 74.6032 13.5215C74.487 13.4053 74.3226 13.3509 74.16 13.3748L73.83 13.3748Q73.6142 13.3748 73.5395 13.2721Q73.5 13.2178 73.5 13.1348L73.5 11.9547C73.4893 11.8043 73.5852 11.6668 73.73 11.6248C74.0759 11.499 74.442 11.438 74.81 11.4448C75.5607 11.3783 76.2767 11.7739 76.62 12.4448C77.271 11.7862 78.1643 11.4246 79.09 11.4448ZM78.91 17.4042C78.3889 17.4042 77.8903 17.1913 77.53 16.8148C77.1688 16.3887 76.9797 15.843 77 15.2847C76.9768 14.7261 77.1662 14.1793 77.53 13.7548C77.8903 13.3782 78.3889 13.1652 78.91 13.1652C79.4312 13.1652 79.9297 13.3782 80.29 13.7548C80.6684 14.1719 80.8662 14.7221 80.84 15.2847C80.8629 15.8469 80.6656 16.3958 80.29 16.8148C79.9297 17.1913 79.4312 17.4042 78.91 17.4042Z" clip-rule="evenodd" fill="#696871" fill-opacity="1.000000" fill-rule="evenodd"/>
	<path d="M87.77 19.2C86.87 19.24 85.98 19.02 85.2 18.58C84.56 18.2 84.13 17.55 84.04 16.81C84.04 16.61 84.11 16.51 84.33 16.51L85.8 16.51C85.94 16.52 86.07 16.6 86.13 16.73C86.34 17.27 86.89 17.54 87.77 17.54C88.07 17.55 88.38 17.49 88.66 17.36C88.85 17.27 88.98 17.08 89 16.87C89 16.61 88.84 16.43 88.52 16.31C88.14 16.18 87.74 16.1 87.35 16.06C86.87 16.01 86.41 15.92 85.95 15.81C85.5 15.71 85.09 15.47 84.78 15.14C84.4 14.68 84.23 14.08 84.32 13.5C84.4 12.91 84.72 12.38 85.21 12.04C85.93 11.58 86.77 11.36 87.63 11.4C88.45 11.37 89.27 11.58 89.99 11.99C90.57 12.32 90.97 12.9 91.09 13.56C91.09 13.76 91 13.86 90.82 13.86L89.34 13.86C89.21 13.87 89.09 13.8 89.04 13.68C88.94 13.44 88.75 13.25 88.52 13.15C88.25 13.01 87.95 12.94 87.66 12.95C87.36 12.93 87.07 12.99 86.81 13.12C86.61 13.19 86.49 13.38 86.49 13.58C86.5 13.86 86.69 14.1 86.97 14.17C87.35 14.31 87.75 14.42 88.16 14.47C88.62 14.53 89.09 14.62 89.55 14.73C89.99 14.83 90.4 15.06 90.72 15.4C91.05 15.77 91.23 16.27 91.21 16.77C91.22 17.47 90.87 18.13 90.28 18.51C89.53 18.99 88.65 19.23 87.77 19.2Z" fill="#696871" fill-opacity="1.000000" fill-rule="nonzero"/>
	<path d="M101.78 18.7C101.79 18.77 101.77 18.84 101.73 18.9C101.68 18.96 101.62 19 101.55 19.01C101.18 19.13 100.8 19.19 100.42 19.2C99.64 19.28 98.88 18.95 98.42 18.33C97.71 18.94 96.8 19.25 95.87 19.2C94.99 19.24 94.14 18.91 93.53 18.29C92.91 17.64 92.59 16.77 92.64 15.88L92.64 11.97C92.64 11.78 92.73 11.68 92.92 11.68L94.6 11.68C94.79 11.68 94.88 11.78 94.88 11.97L94.88 15.58C94.86 16.03 95.01 16.47 95.31 16.81C95.6 17.13 96.02 17.3 96.46 17.28C96.9 17.3 97.33 17.14 97.66 16.84C97.96 16.52 98.13 16.09 98.11 15.65L98.11 11.97C98.11 11.78 98.2 11.68 98.39 11.68L100.09 11.68C100.28 11.68 100.37 11.78 100.37 11.97L100.37 16.68C100.37 17.07 100.54 17.26 100.87 17.26C101.02 17.27 101.18 17.25 101.33 17.21C101.4 17.19 101.48 17.2 101.55 17.25C101.61 17.3 101.65 17.37 101.66 17.45L101.78 18.7Z" fill="#696871" fill-opacity="1.000000" fill-rule="nonzero"/>
	<path d="M117.67 18.7C117.68 18.77 117.67 18.85 117.62 18.91C117.58 18.97 117.51 19.01 117.44 19.01C117.06 19.13 116.68 19.19 116.29 19.2C115.69 19.23 115.1 19.06 114.62 18.72C114.19 18.42 113.94 17.93 113.95 17.41L113.95 15.06C113.97 14.61 113.82 14.17 113.53 13.83C113.24 13.51 112.83 13.34 112.41 13.36C112.02 13.35 111.65 13.51 111.41 13.8C111.14 14.13 111.01 14.55 111.03 14.98L111.03 18.67C111.03 18.86 110.94 18.96 110.75 18.96L109.06 18.96C108.98 18.97 108.9 18.94 108.84 18.89C108.78 18.83 108.76 18.75 108.77 18.67L108.77 15.06C108.79 14.62 108.65 14.18 108.38 13.83C108.13 13.53 107.76 13.36 107.38 13.36C106.96 13.34 106.56 13.5 106.28 13.8C105.99 14.12 105.84 14.55 105.87 14.98L105.87 18.67C105.88 18.75 105.85 18.83 105.79 18.89C105.73 18.94 105.66 18.97 105.58 18.96L103.95 18.96C103.76 18.96 103.67 18.86 103.67 18.67L103.67 13.96C103.69 13.8 103.63 13.63 103.52 13.52C103.4 13.4 103.24 13.35 103.08 13.37L102.75 13.37C102.53 13.37 102.42 13.29 102.42 13.13L102.42 11.95C102.4 11.8 102.5 11.66 102.65 11.62C102.99 11.49 103.36 11.43 103.73 11.44C104.45 11.38 105.14 11.74 105.51 12.36C106.19 11.71 107.11 11.38 108.05 11.44C108.96 11.4 109.84 11.79 110.42 12.5C111.09 11.77 112.05 11.38 113.04 11.44C113.92 11.4 114.78 11.73 115.41 12.35C116.02 13 116.34 13.87 116.3 14.76L116.3 16.69C116.3 17.07 116.47 17.26 116.79 17.26C116.94 17.27 117.1 17.25 117.25 17.21C117.45 17.21 117.56 17.29 117.58 17.45L117.67 18.7Z" fill="#696871" fill-opacity="1.000000" fill-rule="nonzero"/>
	<path d="M13.695 0C7.40732 0 1.92809 4.28308 0.410004 10.3847L1.61 10.3847C3.63432 10.3549 5.61713 10.9599 7.28 12.1147C7.37596 12.1842 7.47617 12.2477 7.58 12.3047L7.72 12.3047C7.82384 12.2477 7.92403 12.1842 8.02 12.1147C11.4515 9.80725 15.9385 9.80725 19.37 12.1147C19.466 12.1842 19.5662 12.2477 19.67 12.3047L19.81 12.3047C19.9138 12.2477 20.014 12.1842 20.11 12.1147C21.7729 10.9599 23.7557 10.3549 25.78 10.3847L26.98 10.3847C25.4619 4.28308 19.9827 0 13.695 0ZM23.62 16.6547C24.236 16.175 24.9995 15.924 25.78 15.9447L27.39 15.9447L27.39 12.7347L25.78 12.7347C24.4052 12.7181 23.0619 13.146 21.95 13.9547C20.6656 14.9016 18.9143 14.9016 17.63 13.9547C15.295 12.3293 12.195 12.3293 9.86 13.9547C8.57565 14.9016 6.82434 14.9016 5.53999 13.9547C4.4144 13.1356 3.05179 12.7072 1.66 12.7347L0 12.7347L0 15.9447L1.61 15.9447C2.3905 15.924 3.15399 16.175 3.77 16.6547C6.10094 18.2813 9.19905 18.2813 11.53 16.6547C12.1468 16.1765 12.9097 15.9257 13.69 15.9447C14.4707 15.9224 15.2348 16.1735 15.85 16.6547C18.185 18.2802 21.285 18.2802 23.62 16.6547ZM25.78 21.6847C24.9995 21.664 24.236 21.915 23.62 22.3947C21.285 24.0201 18.185 24.0201 15.85 22.3947C15.2348 21.9135 14.4707 21.6624 13.69 21.6847C12.9097 21.6656 12.1468 21.9164 11.53 22.3947C9.19905 24.0214 6.10094 24.0214 3.77 22.3947C3.15399 21.915 2.3905 21.664 1.61 21.6847L0 21.6847L0 18.4747L1.66 18.4747C3.05179 18.4472 4.4144 18.8757 5.53999 19.6947C6.82434 20.6416 8.57565 20.6416 9.86 19.6947C12.195 18.0693 15.295 18.0693 17.63 19.6947C18.9143 20.6416 20.6656 20.6416 21.95 19.6947C23.0619 18.886 24.4052 18.4581 25.78 18.4747L27.39 18.4747L27.39 21.6847L25.78 21.6847Z" clip-rule="evenodd" fill="#696871" fill-opacity="1.000000" fill-rule="evenodd"/>
</svg>
