<svg width="123.360001" height="28.489990" viewBox="0 0 123.36 28.49" fill="none" xmlns="http://www.w3.org/2000/svg" xmlns:xlink="http://www.w3.org/1999/xlink">
	<desc>
			Created with Pixso.
	</desc>
	<defs/>
	<path d="M26.52 9.95C26.88 9.95 27 10.08 27 10.43L27 18.35L31.07 18.35C31.42 18.35 31.55 18.48 31.55 18.83L31.55 19.53C31.55 19.87 31.42 20.01 31.07 20.01L25.71 20.01C25.36 20.01 25.22 19.87 25.22 19.53L25.22 10.43C25.22 10.08 25.36 9.95 25.71 9.95L26.52 9.95Z" fill="#696871" fill-opacity="1.000000" fill-rule="nonzero"/>
	<path d="M39.1 9.73999C36.56 9.73999 35.1 11.13 35.1 13.44L35.1 16.52C35.1 18.83 36.57 20.22 39.1 20.22C41.63 20.22 43.1 18.83 43.1 16.52L43.1 13.44C43.1 11.13 41.64 9.73999 39.1 9.73999ZM39.15 11.44C40.61 11.44 41.42 12.14 41.42 13.44L41.42 16.54C41.42 17.82 40.61 18.54 39.15 18.54C37.69 18.54 36.89 17.85 36.89 16.54L36.89 13.44C36.89 12.15 37.69 11.44 39.15 11.44Z" clip-rule="evenodd" fill="#696871" fill-opacity="1.000000" fill-rule="evenodd"/>
	<path d="M55.01 14.5C55.4 14.5 55.49 14.63 55.49 14.98L55.49 16.87C55.51 17.78 55.12 18.65 54.43 19.24C53.58 19.91 52.51 20.25 51.43 20.18C48.84 20.18 47.43 18.79 47.43 16.48L47.43 13.38C47.43 11.1 48.89 9.7 51.43 9.7C53.43 9.7 54.73 10.49 55.28 12.07C55.34 12.19 55.34 12.33 55.28 12.45C55.22 12.57 55.11 12.66 54.98 12.69L54.2 12.96C53.86 13.08 53.72 13.01 53.6 12.66C53.25 11.78 52.36 11.24 51.43 11.36C49.96 11.36 49.16 12.07 49.16 13.36L49.16 16.54C49.16 17.85 49.97 18.54 51.43 18.54C52.89 18.54 53.79 17.87 53.79 16.89L53.79 16.15L51.62 16.15C51.26 16.15 51.13 16.01 51.13 15.66L51.13 14.98C51.13 14.63 51.26 14.5 51.62 14.5L55.01 14.5Z" fill="#696871" fill-opacity="1.000000" fill-rule="nonzero"/>
	<path d="M63.62 9.73999C61.08 9.73999 59.62 11.13 59.62 13.44L59.62 16.52C59.62 18.83 61.09 20.22 63.62 20.22C66.15 20.22 67.62 18.83 67.62 16.52L67.62 13.44C67.62 11.13 66.16 9.73999 63.62 9.73999ZM63.67 11.44C65.12 11.44 65.93 12.14 65.93 13.44L65.93 16.54C65.93 17.82 65.13 18.54 63.67 18.54C62.21 18.54 61.4 17.85 61.4 16.54L61.4 13.44C61.4 12.15 62.22 11.44 63.67 11.44Z" clip-rule="evenodd" fill="#696871" fill-opacity="1.000000" fill-rule="evenodd"/>
	<path d="M72.33 10.24C72.33 10.02 72.4 9.95 72.62 9.95L73.08 9.95C73.3 9.95 73.35 10.02 73.35 10.24L73.35 19.71C73.35 19.94 73.35 20.01 73.08 20.01L72.62 20.01C72.4 20.01 72.33 19.94 72.33 19.71L72.33 10.24Z" fill="#696871" fill-opacity="1.000000" fill-rule="nonzero"/>
	<path d="M82.46 9.95001C84.1942 9.95001 85.6 11.3558 85.6 13.09C85.6 14.8242 84.1942 16.23 82.46 16.23L79.46 16.23L79.46 19.72C79.46 19.94 79.41 20.01 79.2 20.01L78.73 20.01C78.52 20.01 78.44 19.94 78.44 19.72L78.44 10.24C78.44 10.02 78.52 9.95001 78.73 9.95001L82.46 9.95001ZM84.2579 14.15C83.8685 14.8245 83.1488 15.24 82.37 15.24L79.37 15.24L79.37 10.88L82.37 10.88C83.1488 10.88 83.8685 11.2955 84.2579 11.97C84.6474 12.6445 84.6474 13.4755 84.2579 14.15Z" clip-rule="evenodd" fill="#696871" fill-opacity="1.000000" fill-rule="evenodd"/>
	<path d="M93.41 9.75C94.99 9.57 96.5 10.46 97.13 11.93C97.21 12.09 97.13 12.22 96.97 12.3L96.53 12.5C96.35 12.57 96.28 12.56 96.17 12.37C95.7 11.28 94.58 10.61 93.41 10.73C91.72 10.73 90.8 11.4 90.8 12.6C90.77 13.35 91.32 14.01 92.07 14.14C92.6 14.31 93.16 14.42 93.73 14.46C94.41 14.49 95.08 14.63 95.73 14.87C96.74 15.19 97.39 16.18 97.29 17.24C97.29 19.11 95.93 20.24 93.43 20.24C91.74 20.43 90.14 19.42 89.6 17.81C89.56 17.73 89.56 17.65 89.59 17.58C89.62 17.5 89.69 17.45 89.77 17.43L90.21 17.27C90.28 17.24 90.35 17.24 90.42 17.27C90.49 17.3 90.54 17.36 90.57 17.44C91.02 18.59 92.18 19.32 93.43 19.24C95.32 19.24 96.25 18.58 96.25 17.24C96.28 16.51 95.79 15.86 95.08 15.71C94.56 15.55 94.02 15.46 93.49 15.43L92.41 15.29C92.07 15.21 91.73 15.12 91.41 15.02C91.08 14.92 90.78 14.76 90.52 14.55C89.98 14.06 89.68 13.36 89.72 12.64C89.79 10.89 91.1 9.75 93.41 9.75Z" fill="#696871" fill-opacity="1.000000" fill-rule="nonzero"/>
	<path d="M102.68 16.59C102.76 18.05 103.98 19.2 105.45 19.2C106.92 19.2 108.14 18.05 108.23 16.59L108.23 10.24C108.23 10.02 108.3 9.95 108.52 9.95L108.98 9.95C109.2 9.95 109.27 10.02 109.27 10.24L109.27 16.58C109.27 18.85 107.93 20.21 105.46 20.21C102.99 20.21 101.65 18.85 101.65 16.58L101.65 10.24C101.65 10.02 101.72 9.95 101.93 9.95L102.4 9.95C102.61 9.95 102.68 10.02 102.68 10.24L102.68 16.59Z" fill="#696871" fill-opacity="1.000000" fill-rule="nonzero"/>
	<path d="M123.07 9.94C123.29 9.94 123.36 10.02 123.36 10.24L123.36 19.71C123.36 19.94 123.29 20 123.07 20L122.65 20C122.44 20 122.37 19.94 122.37 19.71L122.37 13.95C122.37 13.11 122.42 12.27 122.54 11.44L122.48 11.44C122.16 12.2 121.8 12.93 121.39 13.65L119.24 17.44C119.18 17.57 119.05 17.66 118.91 17.66L118.63 17.66C118.48 17.66 118.35 17.57 118.29 17.44L116.11 13.61C115.72 12.9 115.38 12.18 115.11 11.43L115.05 11.43C115.15 12.26 115.2 13.11 115.21 13.96L115.21 19.71C115.21 19.94 115.14 20 114.92 20L114.53 20C114.31 20 114.24 19.94 114.24 19.71L114.24 10.24C114.24 10.02 114.31 9.94 114.53 9.94L114.89 9.94C115.05 9.93 115.21 10.02 115.29 10.18L118.79 16.4L122.27 10.24C122.38 10.03 122.44 10 122.66 10L123.07 9.94Z" fill="#696871" fill-opacity="1.000000" fill-rule="nonzero"/>
	<path d="M8.73001 17.79L8.73001 25.02C8.73001 25.5972 8.26215 26.065 7.685 26.065C7.10785 26.065 6.64001 25.5972 6.64001 25.02L6.64001 17.8C6.93097 18.0125 7.27985 18.1311 7.64001 18.14C8.03265 18.1512 8.4173 18.0277 8.73001 17.79ZM16.63 16.7C16.63 16.1477 17.0777 15.7 17.63 15.7C17.9194 15.6734 18.206 15.774 18.4152 15.9756C18.6115 16.1646 18.7215 16.4249 18.7215 16.6957C18.7215 16.7138 18.721 16.7319 18.72 16.75L18.72 17.96C18.72 18.5371 18.2521 19.005 17.675 19.005C17.0979 19.005 16.63 18.5371 16.63 17.96L16.63 16.7ZM3.37 20.19C3.66183 20.4008 4.01016 20.5192 4.37 20.53C4.75818 20.5527 5.14346 20.451 5.47 20.24L5.47 27.44C5.47 28.0199 4.99991 28.49 4.42001 28.49C3.84009 28.49 3.37 28.0199 3.37 27.44L3.37 20.19ZM13.6303 13.8046C13.8288 13.6155 14.0962 13.5163 14.37 13.53L14.32 13.55C14.611 13.5203 14.9004 13.6195 15.112 13.8215C15.3102 14.0107 15.4215 14.2723 15.4215 14.5448C15.4215 14.5631 15.421 14.5815 15.42 14.6L15.42 20.1C15.42 20.6799 14.9499 21.15 14.37 21.15C13.7901 21.15 13.32 20.6799 13.32 20.1L13.32 14.53L13.32 14.5287C13.32 14.2551 13.4322 13.9933 13.6303 13.8046ZM10 15.33C10.3067 15.5487 10.6733 15.6674 11.05 15.67L11 15.69C11.3955 15.6995 11.7827 15.5763 12.1 15.34L12.1 22.6C12.1 23.1799 11.6299 23.65 11.05 23.65C10.4701 23.65 10 23.1799 10 22.6L10 15.33ZM2.10001 0.929993L2.10001 21.24C2.10001 21.4893 2.00098 21.7284 1.82468 21.9047C1.64841 22.081 1.4093 22.18 1.16 22.18L0.940002 22.18C0.420837 22.18 0 21.7592 0 21.24L0 0.929993C0.00549316 0.414734 0.424744 0 0.940002 0L1.16 0C1.67526 0 2.09451 0.414734 2.10001 0.929993ZM4.48001 19.76L4.26001 19.76C3.74084 19.76 3.32001 19.3392 3.32001 18.82L3.32001 3.34998C3.32547 2.83478 3.74472 2.41998 4.26001 2.41998L4.48001 2.41998C4.99527 2.41998 5.41452 2.83478 5.42001 3.34998L5.42001 18.84C5.42001 19.3591 4.99915 19.78 4.48001 19.78L4.48001 19.76ZM7.79001 17.38L7.56 17.38C7.04639 17.38 6.63 16.9636 6.63 16.45L6.63 5.75L6.62994 5.73999C6.62994 5.49518 6.72647 5.26013 6.89883 5.08594C7.07352 4.90936 7.31161 4.81 7.56 4.81L7.79001 4.81C8.30521 4.81549 8.72 5.23468 8.72 5.74994L8.72 16.45C8.72 16.9636 8.30362 17.38 7.79001 17.38ZM11.1 14.93L10.89 14.93C10.3747 14.9301 9.95547 14.5153 9.95001 14L9.95001 8.23999C9.94873 8.21997 9.94809 8.19995 9.94809 8.17993C9.94809 7.94147 10.0388 7.711 10.2032 7.53619C10.3813 7.34668 10.6299 7.23944 10.89 7.23999L11.11 7.23999C11.6292 7.23999 12.05 7.66083 12.05 8.17999L12.05 13.98L12.05 13.99C12.05 14.2374 11.9525 14.4751 11.7782 14.6511C11.6017 14.8296 11.3611 14.93 11.11 14.93L11.1 14.93ZM14.42 12.78L14.2 12.78C13.6808 12.78 13.26 12.3591 13.26 11.84L13.26 10.35C13.2655 9.83478 13.6847 9.41998 14.2 9.41998L14.42 9.41998C14.9353 9.41998 15.3545 9.83478 15.36 10.35L15.36 11.84C15.36 12.3553 14.9452 12.7745 14.43 12.78L14.42 12.78Z" clip-rule="evenodd" fill="#696871" fill-opacity="1.000000" fill-rule="evenodd"/>
</svg>
