<svg width="126.718689" height="29.540894" viewBox="0 0 126.719 29.5409" fill="none" xmlns="http://www.w3.org/2000/svg" xmlns:xlink="http://www.w3.org/1999/xlink">
	<desc>
			Created with Pixso.
	</desc>
	<defs/>
	<path d="M35.99 9.03082L39.2 9.03082L39.2 22.0308L35.99 22.0308L35.99 9.03082ZM40.48 17.1409C40.48 13.9208 42.48 11.9908 45.48 11.9908C48.48 11.9908 50.48 13.9208 50.48 17.1409C50.48 20.3608 48.55 22.3109 45.48 22.3109C42.41 22.3109 40.48 20.4308 40.48 17.1409ZM45.51 14.3309C46.61 14.3309 47.3 15.3708 47.3 17.1409L47.32 17.1508C47.32 18.9509 46.61 19.9409 45.51 19.9409C44.41 19.9409 43.73 18.9509 43.73 17.1409C43.73 15.3309 44.41 14.3309 45.51 14.3309ZM51.76 22.7009L54.86 22.7009C55.15 23.3867 55.8613 23.7955 56.6 23.7009C57.83 23.7009 58.47 23.0408 58.47 22.0609L58.47 20.2818C57.9232 21.4166 56.7378 22.103 55.48 22.0109C53.13 22.0109 51.57 20.2208 51.57 17.1409C51.57 14.0609 53.06 12.1409 55.57 12.1409C56.7969 12.0752 57.937 12.7466 58.48 13.8336L58.48 12.2208L61.66 12.2208L61.66 21.9609C61.66 24.3109 59.58 25.7808 56.52 25.7808C53.74 25.7709 51.96 24.5009 51.78 22.7109L51.76 22.7009ZM58.48 17.1409C58.48 18.7709 57.77 19.6208 56.62 19.6208C55.47 19.6208 54.78 18.7009 54.78 17.1409C54.78 15.5809 55.48 14.5809 56.62 14.5809C57.76 14.5809 58.48 15.5709 58.48 17.1409ZM62.93 17.1409C62.93 13.9208 64.93 11.9908 67.93 11.9908C70.93 11.9908 72.93 13.9208 72.93 17.1409C72.93 20.3608 70.99 22.3109 67.93 22.3109C64.87 22.3109 62.95 20.4308 62.95 17.1409L62.93 17.1409ZM67.96 14.3309C69.05 14.3309 69.75 15.3708 69.75 17.1409L69.77 17.1508C69.77 18.9509 69.06 19.9409 67.96 19.9409C66.86 19.9409 66.18 18.9509 66.18 17.1409C66.18 15.3309 66.87 14.3309 67.96 14.3309ZM74.23 9.85083C74.229 9.82733 74.2285 9.80383 74.2285 9.78046C74.2285 9.13879 74.6038 8.55304 75.1924 8.28668C75.8024 8.01068 76.5189 8.13318 77.0026 8.59619C77.3322 8.91174 77.5085 9.34229 77.5085 9.78119C77.5085 9.98633 77.47 10.1933 77.3907 10.3912C77.1415 11.0126 76.5396 11.4202 75.87 11.4208C75.4475 11.4316 75.0383 11.2726 74.7339 10.9795C74.4295 10.6863 74.2552 10.2834 74.25 9.86084L74.23 9.85083ZM74.23 12.2109L77.48 12.2109L77.48 22.0709L74.28 22.0709L74.23 12.2109ZM89.17 17.1409C89.17 20.3508 87.73 22.2109 85.28 22.2109C83.9952 22.2901 82.7975 21.5594 82.28 20.3809L82.22 20.3809L82.22 25.2408L79.01 25.2408L79.01 12.2408L82.2 12.2408L82.2 14.0009L82.26 14.0009C82.7599 12.7988 83.9596 12.0389 85.26 12.1008C87.78 12.0809 89.23 13.9308 89.23 17.1508L89.17 17.1409ZM84.04 14.5709C85.17 14.5709 85.9 15.5809 85.9 17.1409L85.96 17.1508C85.96 18.7709 85.17 19.7009 84.04 19.7009C82.9176 19.7009 82.1899 18.7242 82.1899 17.1727C82.1899 17.162 82.1899 17.1515 82.19 17.1409C82.2 15.5709 82.91 14.5709 84.04 14.5709ZM94.65 11.9808C97.34 11.9808 99.01 13.2509 99.03 15.2908L96.1 15.2908C96.1 14.5809 95.51 14.1409 94.63 14.1409C93.75 14.1409 93.33 14.4808 93.33 14.9908C93.33 15.5009 93.7 15.6608 94.44 15.8109L96.5 16.2308C98.5 16.6508 99.3 17.4509 99.3 18.9409C99.3 20.9409 97.45 22.3008 94.7 22.3008C91.95 22.3008 90.16 20.9808 90.03 18.9708L93.14 18.9708C93.23 19.7009 93.81 20.1309 94.75 20.1309C95.69 20.1309 96.13 19.8309 96.13 19.3008C96.13 18.7709 95.83 18.6808 95.06 18.5209L93.2 18.1309C91.27 17.7208 90.26 16.7109 90.26 15.2009C90.32 13.2408 92 11.9908 94.71 11.9908L94.65 11.9808ZM110.05 22.0609L106.94 22.0609L106.94 20.2109L106.88 20.2109C106.521 21.4819 105.329 22.3339 104.01 22.2609C103.032 22.2927 102.088 21.9056 101.413 21.197C100.804 20.5569 100.468 19.7094 100.468 18.8329C100.468 18.7391 100.472 18.645 100.48 18.5508L100.48 12.2208L103.69 12.2208L103.69 17.8608C103.69 19.0209 104.3 19.6508 105.3 19.6508C105.775 19.6473 106.225 19.4382 106.533 19.0776C106.789 18.7786 106.928 18.3995 106.928 18.0109C106.928 17.9311 106.922 17.8509 106.91 17.7709L106.91 12.2208L110.11 12.2208L110.05 22.0609ZM111.6 12.2109L114.72 12.2109L114.72 14.1108L114.79 14.1108C115.145 12.8591 116.299 12.0043 117.6 12.0308C118.916 11.9164 120.102 12.8217 120.34 14.1208L120.48 14.1208C120.891 12.8249 122.122 11.9673 123.48 12.0308C124.368 11.9971 125.228 12.3434 125.845 12.983C126.407 13.5666 126.719 14.3438 126.719 15.1484C126.719 15.2257 126.716 15.3032 126.71 15.3809L126.71 22.0709L123.48 22.0709L123.48 16.2009C123.48 15.2009 123.01 14.6409 122.1 14.6409C121.692 14.6342 121.301 14.8062 121.03 15.1118C120.801 15.3695 120.677 15.7005 120.677 16.0406C120.677 16.1038 120.681 16.1674 120.69 16.2308L120.69 22.0709L117.63 22.0709L117.63 16.1708C117.63 15.1708 117.14 14.6409 116.26 14.6409C115.847 14.6376 115.453 14.8127 115.179 15.1212C114.946 15.3844 114.819 15.7228 114.819 16.0707C114.819 16.1306 114.822 16.1907 114.83 16.2509L114.83 22.0709L111.62 22.0709L111.6 12.2109Z" clip-rule="evenodd" fill="#696871" fill-opacity="1.000000" fill-rule="evenodd"/>
	<path d="M23.3441 0.673401C27.1402 2.15112 29.6402 5.80725 29.64 9.88086C29.6381 12.6872 28.4417 15.36 26.35 17.2309L26.35 29.5409L0 29.5409L0 3.20087L12.48 3.20087C15.234 0.19928 19.5479 -0.804382 23.3441 0.673401ZM24.57 9.88086C24.574 11.8313 23.4023 13.5919 21.6015 14.3411C19.8007 15.0903 17.7259 14.6804 16.3453 13.3027C14.9647 11.9249 14.5505 9.85101 15.296 8.04865C16.0414 6.24634 17.7996 5.07086 19.75 5.07086C22.4081 5.07086 24.5645 7.22278 24.57 9.88086ZM5.07001 24.4709L21.28 24.4709L21.28 19.6409C20.7743 19.7247 20.2626 19.7682 19.75 19.7709C14.2902 19.7654 9.86551 15.3407 9.85999 9.88086C9.86438 9.34094 9.91458 8.80231 10.01 8.27087L5.07001 8.27087L5.07001 24.4709Z" clip-rule="evenodd" fill="#696871" fill-opacity="1.000000" fill-rule="evenodd"/>
</svg>
